External Loads File
version=1
nRows=85
nColumns=13
Range=5.000000e-03-10 seconds
endheader
time 	forceRightX 	forceRightY 	forceRightZ 	pointRightX 	pointRightY 	pointRightZ 	forceLeftX 	forceLeftY 	forceLeftZ 	pointLeftX 	pointLeftY 	pointLeftZ 		
7.505000 -30.138083 -32.508199 -0.000000 0.206019 0.467798 -0.149920 -175.133229 1020.825239 -0.000000 0.339111 0.180485 -0.379497
7.510000 -37.687226 -33.200485 -0.000000 0.214445 0.474825 -0.149738 -86.729703 1022.704839 -0.000000 0.330533 0.174588 -0.379454
7.515000 -40.743321 -35.737671 -0.000000 0.222684 0.481156 -0.150511 -116.936864 1003.902172 -0.000000 0.321751 0.169326 -0.379388
7.520000 -47.359600 -30.198441 -0.000000 0.231107 0.487161 -0.151117 -26.200004 989.285237 -0.000000 0.312774 0.164758 -0.379289
7.525000 -49.791525 -26.767842 -0.000000 0.239646 0.492084 -0.151531 -54.861763 963.043851 -0.000000 0.303621 0.160804 -0.379244
7.530000 -54.661496 -13.595224 -0.000000 0.248387 0.496527 -0.152096 32.966034 936.700946 -0.000000 0.294304 0.157565 -0.379217
7.535000 -57.190196 -3.539841 -0.000000 0.257197 0.500238 -0.152563 6.950593 909.361624 -0.000000 0.284875 0.154988 -0.379145
7.540000 -60.704889 9.234857 -0.000000 0.266182 0.503254 -0.152949 -13.883344 882.526428 -0.000000 0.275369 0.153070 -0.379073
7.545000 -61.488913 32.891639 -0.000000 0.274791 0.505534 -0.153461 90.638919 853.884417 -0.000000 0.265772 0.151825 -0.379037
7.550000 -65.645961 49.053126 -0.000000 0.283894 0.506971 -0.153581 72.604020 835.775152 -0.000000 0.256117 0.151313 -0.378941
7.555000 -71.157899 65.625161 -0.000000 0.292677 0.507719 -0.153478 61.706807 821.838829 -0.000000 0.246486 0.151444 -0.378854
7.560000 -78.287945 81.306909 -0.000000 0.301342 0.507528 -0.153127 53.282515 812.705219 -0.000000 0.237003 0.152327 -0.378748
7.565000 -86.850129 95.383384 -0.000000 0.309588 0.506266 -0.152475 48.490165 807.920133 -0.000000 0.227725 0.153930 -0.378659
7.570000 -96.701529 107.348080 -0.000000 0.317604 0.504451 -0.151971 47.438680 806.761377 -0.000000 0.218668 0.156299 -0.378454
7.575000 -108.331669 116.592247 -0.000000 0.325385 0.501673 -0.151441 46.579801 808.421736 -0.000000 0.209665 0.159332 -0.378505
7.580000 -121.783402 123.357960 -0.000000 0.332656 0.498477 -0.150945 47.105720 811.554239 -0.000000 0.201428 0.163133 -0.377967
7.585000 -137.273457 128.058412 -0.000000 0.339906 0.494473 -0.150492 49.403960 814.591575 -0.000000 0.193519 0.167626 -0.378401
7.590000 -155.600155 130.606516 -0.000000 0.346798 0.489841 -0.150052 50.529943 815.827611 -0.000000 0.185474 0.172700 -0.377288
7.595000 -176.878796 131.563512 -0.000000 0.353397 0.484468 -0.149611 51.983484 812.893302 -0.000000 0.177874 0.178353 -0.377032
7.600000 -201.547375 130.896744 -0.000000 0.359538 0.478420 -0.149205 52.808073 803.179171 -0.000000 0.170013 0.184597 -0.376174
7.605000 -229.876897 128.261226 -0.000000 0.365766 0.471586 -0.148583 52.092812 783.776952 -0.000000 0.163544 0.191117 -0.376509
7.610000 -261.639863 123.465036 -0.000000 0.371746 0.464270 -0.148243 50.483787 751.611418 -0.000000 0.156713 0.198078 -0.376369
7.615000 -296.565641 115.717612 -0.000000 0.377296 0.456179 -0.147864 47.161646 704.081263 -0.000000 0.150136 0.205573 -0.376236
7.620000 -333.988045 104.327840 -0.000000 0.382475 0.447640 -0.147630 42.041826 639.597831 -0.000000 0.143863 0.213221 -0.376051
7.625000 -372.795974 89.524271 -0.000000 0.387372 0.438649 -0.147475 36.520204 558.549978 -0.000000 0.137948 0.221864 -0.375921
7.630000 -412.347228 69.500936 -0.000000 0.392056 0.429329 -0.147195 28.557889 464.982947 -0.000000 0.132316 0.230622 -0.375447
7.635000 -148.244787 428.695987 -0.000000 0.396210 0.419528 -0.147346 341.512233 135.242688 -0.000000 0.127282 0.239724 -0.375839
7.640000 -190.806853 450.514683 -0.000000 0.399907 0.409358 -0.147515 253.610469 103.988120 -0.000000 0.122651 0.249145 -0.375815
7.645000 -236.576489 468.502092 -0.000000 0.403156 0.398956 -0.147617 177.958362 77.819379 -0.000000 0.118626 0.258751 -0.375904
7.650000 -285.454428 482.105798 -0.000000 0.406027 0.388355 -0.147609 118.008566 58.446912 -0.000000 0.115260 0.268698 -0.375995
7.655000 -337.878271 490.466832 -0.000000 0.408564 0.377351 -0.147634 73.988480 46.241801 -0.000000 0.112477 0.278843 -0.376074
7.660000 -391.010742 495.059113 -0.000000 0.410366 0.366301 -0.147366 44.452971 40.254042 -0.000000 0.110455 0.289031 -0.376201
7.665000 -445.656180 495.056648 -0.000000 0.411923 0.355205 -0.147506 26.532775 39.651113 -0.000000 0.109275 0.299465 -0.376442
7.670000 -213.931178 667.757897 -0.000000 0.412789 0.343884 -0.147217 35.206035 29.927675 -0.000000 0.108571 0.310123 -0.376459
7.675000 -267.106899 685.578438 -0.000000 0.413277 0.332559 -0.146987 34.412694 36.547226 -0.000000 0.108675 0.320680 -0.376531
7.680000 -234.396754 732.774101 -0.000000 0.413338 0.321231 -0.146865 41.619938 37.604273 -0.000000 0.109475 0.331239 -0.376623
7.685000 -286.379846 748.440251 -0.000000 0.412908 0.309905 -0.146746 45.636823 41.938470 -0.000000 0.110942 0.341863 -0.376715
7.690000 -231.307011 798.468282 -0.000000 0.411814 0.298764 -0.146863 54.909420 38.020077 -0.000000 0.113020 0.353127 -0.376768
7.695000 -282.221976 811.057853 -0.000000 0.410345 0.287684 -0.146420 57.392510 39.851955 -0.000000 0.115683 0.363513 -0.376754
7.700000 -229.666894 853.084203 -0.000000 0.408023 0.276928 -0.145896 62.590414 33.309971 -0.000000 0.118985 0.373539 -0.376834
7.705000 -278.380504 861.435785 -0.000000 0.405196 0.266477 -0.145960 61.293409 33.385387 -0.000000 0.122875 0.383740 -0.376799
7.710000 -220.459499 897.683398 -0.000000 0.401880 0.256262 -0.145839 61.598473 25.497849 -0.000000 0.127285 0.393702 -0.377138
7.715000 -267.966216 901.836087 -0.000000 0.398107 0.246316 -0.145770 56.679315 24.575545 -0.000000 0.131704 0.403386 -0.376447
7.720000 -201.260861 933.331107 -0.000000 0.393756 0.236709 -0.145666 52.985246 16.437267 -0.000000 0.137952 0.412955 -0.377046
7.725000 -246.279966 934.431058 -0.000000 0.388976 0.227505 -0.145767 45.893622 14.583566 -0.000000 0.143411 0.421969 -0.376443
7.730000 -179.829560 958.719010 -0.000000 0.383753 0.218491 -0.145630 39.608158 7.176845 -0.000000 0.149994 0.430840 -0.376519
7.735000 -224.034213 956.086375 -0.000000 0.377929 0.209906 -0.145386 32.019722 4.135303 -0.000000 0.157229 0.439452 -0.377039
7.740000 -145.339182 975.024982 -0.000000 0.371866 0.201834 -0.145267 24.746360 -3.281937 -0.000000 0.164442 0.447699 -0.376164
7.745000 -186.986179 968.717929 -0.000000 0.365278 0.194105 -0.145063 17.879027 -8.017139 -0.000000 0.173038 0.455710 -0.376722
7.750000 -117.048328 977.055693 -0.000000 0.358366 0.187003 -0.144976 10.157543 -15.338321 -0.000000 0.180701 0.463238 -0.376462
7.755000 -155.491853 965.287603 -0.000000 0.351121 0.180243 -0.144869 4.094846 -21.955879 -0.000000 0.188837 0.470747 -0.376307
7.760000 -191.778323 948.028277 -0.000000 0.343490 0.174072 -0.144624 -1.438680 -29.523002 -0.000000 0.196839 0.477159 -0.376005
7.765000 -224.819814 925.184802 -0.000000 0.335592 0.168584 -0.144337 -6.604601 -37.511705 -0.000000 0.205548 0.482968 -0.375974
7.770000 -28.100607 931.570987 -0.000000 0.327462 0.163718 -0.144126 -22.147751 -40.934344 -0.000000 0.214368 0.488458 -0.375817
7.775000 -58.904784 904.719117 -0.000000 0.319160 0.159355 -0.143816 -28.326193 -45.733875 -0.000000 0.223367 0.493382 -0.375669
7.780000 25.427881 875.533048 -0.000000 0.310395 0.155752 -0.143026 -39.796271 -43.628410 -0.000000 0.232394 0.497641 -0.375652
7.785000 -2.208848 839.795594 -0.000000 0.301746 0.152766 -0.142634 -44.841451 -42.822307 -0.000000 0.241734 0.501228 -0.375642
7.790000 65.125298 795.800861 -0.000000 0.293108 0.150449 -0.142356 -53.382279 -33.282464 -0.000000 0.250947 0.503989 -0.375752
7.795000 39.588940 751.142543 -0.000000 0.284374 0.148852 -0.142187 -56.684430 -26.500495 -0.000000 0.260180 0.506218 -0.375858
7.800000 109.190603 692.890135 -0.000000 0.275661 0.147929 -0.142017 -61.548184 -9.422403 -0.000000 0.269524 0.507621 -0.376257
7.805000 85.071645 641.274107 -0.000000 0.267016 0.147766 -0.141873 -63.442748 1.955739 -0.000000 0.278503 0.508438 -0.376591
7.810000 131.042095 574.651487 -0.000000 0.258489 0.148320 -0.141813 -63.724367 22.098220 -0.000000 0.287202 0.508581 -0.377342
7.815000 107.229575 519.065699 -0.000000 0.250070 0.149629 -0.141804 -65.595322 35.880675 -0.000000 0.295730 0.507870 -0.377557
7.820000 153.469709 444.220455 -0.000000 0.241799 0.151633 -0.141899 -60.967256 59.791709 -0.000000 0.303883 0.506051 -0.377961
7.825000 129.148536 389.821105 -0.000000 0.233727 0.154369 -0.142051 -64.364843 75.350964 -0.000000 0.311713 0.503683 -0.378368
7.830000 151.165348 319.569045 -0.000000 0.225831 0.157826 -0.142373 -58.110725 100.202898 -0.000000 0.319388 0.500685 -0.378998
7.835000 126.505274 272.017486 -0.000000 0.218070 0.161835 -0.142609 -66.038643 118.661361 -0.000000 0.326651 0.496366 -0.379687
7.840000 138.106492 209.991241 -0.000000 0.210527 0.166329 -0.142754 -57.104897 148.737691 -0.000000 0.333714 0.491789 -0.380273
7.845000 115.681925 173.473445 -0.000000 0.203161 0.171371 -0.143024 -70.958169 172.678182 -0.000000 0.340567 0.486322 -0.380968
7.850000 109.231546 133.037962 -0.000000 0.195973 0.176810 -0.143269 -72.937813 205.399407 -0.000000 0.347258 0.480229 -0.381514
7.855000 93.025439 107.915045 -0.000000 0.188992 0.182826 -0.143468 -95.332337 234.176016 -0.000000 0.353681 0.473239 -0.381990
7.860000 90.131206 78.336292 -0.000000 0.182232 0.189253 -0.143562 -93.924826 274.974566 -0.000000 0.359930 0.465963 -0.382285
7.865000 80.309479 63.695626 -0.000000 0.175744 0.196070 -0.143602 -123.809126 306.027781 -0.000000 0.365729 0.458117 -0.382309
7.870000 80.527059 42.360231 -0.000000 0.169600 0.203354 -0.143782 -111.517181 353.081105 -0.000000 0.371678 0.449683 -0.382610
7.875000 75.918334 35.767610 -0.000000 0.163800 0.211042 -0.143683 -147.518878 382.358449 -0.000000 0.377278 0.440753 -0.382626
7.880000 77.453013 21.051500 -0.000000 0.158459 0.219154 -0.143721 -127.725358 429.215559 -0.000000 0.382464 0.431492 -0.382578
7.885000 76.507596 19.762184 -0.000000 0.153411 0.227667 -0.143609 -168.756476 453.221377 -0.000000 0.387342 0.421941 -0.382576
7.890000 78.544258 11.205355 -0.000000 0.149229 0.236548 -0.143624 -156.359069 492.815451 -0.000000 0.391842 0.412072 -0.382503
7.895000 79.406890 13.551646 -0.000000 0.145462 0.245592 -0.143544 -202.903330 509.235924 -0.000000 0.396047 0.402134 -0.382420
7.900000 81.847527 7.229836 -0.000000 0.142254 0.255136 -0.143499 -185.552195 546.787975 -0.000000 0.399794 0.392299 -0.382433
7.905000 82.953932 12.072256 -0.000000 0.139549 0.264781 -0.143483 -234.776889 557.773627 -0.000000 0.403101 0.381673 -0.382417
7.910000 85.091331 6.320910 -0.000000 0.137385 0.274594 -0.143707 -204.997638 597.608081 -0.000000 0.405885 0.370999 -0.382381
7.915000 85.529596 13.197414 -0.000000 0.135802 0.284577 -0.143719 -256.806745 605.284116 -0.000000 0.408139 0.360103 -0.382086
7.920000 86.749561 10.614829 -0.000000 0.134195 0.294776 -0.144354 -236.308392 640.248359 -0.000000 0.409772 0.349102 -0.382037
7.925000 85.855365 18.305681 -0.000000 0.133786 0.305114 -0.144497 -288.251249 645.299859 -0.000000 0.410606 0.338030 -0.382963
